# xmcd CD database file
#
# Track frame offsets:
#	150
#	16372
#	27877
#	39675
#	54508
#	68817
#	81148
#	96621
#	106185
#	118926
#	131146
#	144520
#	157632
#	171646
#	182826
#	193370
#	208190
#	223624
#	234259
#	246809
#
# Disc length: 3483 seconds
#
# Revision: 4
# Processed by: cddbd v1.5.2PL0 Copyright (c) Steve Scherf et al.
# Submitted via: CDex 1.51
#
DISCID=280d9914
DTITLE=Benny Goodman - Vol.05 - I Had To Do It
DYEAR=1900
DGENRE=Jazz
TTITLE0=Love Me Or Leave Me
TTITLE1=Bugle Call Rag
TTITLE2=When A Lady Meets A Gentleman Down South
TTITLE3=You're Giving Me A Song And A Dance
TTITLE4=Organ Grinder's Swing
TTITLE5=Peter Piper
TTITLE6=Riffin' At The Ritz
TTITLE7=Alexander's Ragtime Band
TTITLE8=Somebody Loves Me
TTITLE9=T'ain't No Use
TTITLE10=Bugle Call Rag [2]
TTITLE11=Jam Session
TTITLE12=Goodnight, My Love
TTITLE13=Take Another Guess
TTITLE14=Did You Mean It ¿
TTITLE15=Sweet Sue - Just You
TTITLE16=My Melancholy Baby
TTITLE17=Whe You And I Were Young, Maggie
TTITLE18=Gee! But You're Swell
TTITLE19=Smoke Dreams
EXTD=
EXTT0=
EXTT1=
EXTT2=
EXTT3=
EXTT4=
EXTT5=
EXTT6=
EXTT7=
EXTT8=
EXTT9=
EXTT10=
EXTT11=
EXTT12=
EXTT13=
EXTT14=
EXTT15=
EXTT16=
EXTT17=
EXTT18=
EXTT19=
PLAYORDER=
